<?xml version="1.0" encoding="UTF-8"?>
<svg id="a" data-name="Layer 1" xmlns="http://www.w3.org/2000/svg" viewBox="0 0 646 250">
  <rect width="646" height="250" fill="none" stroke-width="0"/>
  <rect x="41.75" y="41.8" width="562.5" height="166.41" rx="23.44" ry="23.44" fill="#ababab" stroke-width="0"/>
  <rect x="46.44" y="46.48" width="553.12" height="157.03" rx="18.75" ry="18.75" fill="#131313" stroke-width="0"/>
  <path d="M231.91,86.81c.01.1.03.14.02.17,0,.07-.01.14-.03.21-.57,2.37-1.96,4.04-4.22,4.96-1.63.66-3.35.8-5.07.49-3.12-.57-5.24-2.42-6.43-5.32-.69-1.67-.76-3.42-.44-5.18.97-5.41,6.46-8.35,11.38-6.45.86.33,1.7.72,2.49,1.2.32.2.67.35,1.02.5.31.13.63.11.96.02.6-.17,1.04-.57,1.41-1.05.67-.89.65-1.87-.06-2.74-.33-.41-.74-.74-1.18-1.03-.73-.48-1.5-.87-2.32-1.18-1.62-.63-3.31-.9-5.04-.92-1.27-.01-2.53.11-3.76.43-4.35,1.11-7.4,4.51-8.7,7.39-.59,1.31-.95,2.69-1.1,4.12-.15,1.45-.09,2.89.18,4.32.46,2.37,1.53,4.43,3.14,6.22,1.54,1.71,3.36,3.02,5.56,3.75,2.87.95,5.77.97,8.65.12,3.33-.99,5.79-3.07,7.33-6.18.94-1.89,1.26-3.91,1.21-6.01,0-.21-.05-.43-.1-.64-.23-.95-.95-1.61-1.93-1.74-.29-.04-.58-.06-.87-.06-2.77,0-5.54,0-8.31,0-.27,0-.55.02-.81.07-.77.16-1.3.61-1.53,1.37-.14.46-.16.92-.07,1.4.2.97.83,1.57,1.8,1.69.29.03.58.05.87.05,1.77,0,3.55,0,5.32,0,.2,0,.39.01.62.02Z" fill="#e2e2e2" stroke-width="0"/>
  <path d="M245.13,92.25c-.02-.14-.04-.21-.04-.28,0-1.81,0-3.62,0-5.43,0-.07.03-.13.05-.24.21,0,.4-.01.6-.01,2.24,0,4.49,0,6.73,0,.34,0,.69-.02,1.02-.1.75-.18,1.23-.66,1.45-1.4.16-.53.16-1.07,0-1.61-.21-.76-.7-1.26-1.47-1.44-.31-.07-.64-.1-.97-.1-2.26,0-4.53,0-6.79,0-.19,0-.39.03-.6-.05-.01-.08-.04-.14-.04-.21,0-1.81,0-3.62,0-5.43,0-.08.05-.16.08-.27h.61c2.57,0,5.14,0,7.71,0,.24,0,.47,0,.71-.02.89-.09,1.59-.64,1.82-1.48.14-.49.16-1,.04-1.5-.2-.85-.8-1.44-1.66-1.58-.28-.05-.58-.06-.86-.06-3.49,0-6.99,0-10.48,0-.31,0-.62.02-.92.07-.9.14-1.55.75-1.74,1.64-.07.35-.09.72-.09,1.08,0,6.75,0,13.5,0,20.26,0,.13,0,.25,0,.38.03.27.04.55.11.8.23.86.8,1.4,1.68,1.58.26.05.54.07.81.07,3.57,0,7.13,0,10.7,0,.29,0,.58-.02.86-.08.77-.17,1.3-.63,1.54-1.38.16-.51.18-1.03.06-1.55-.19-.77-.66-1.27-1.41-1.51-.33-.11-.68-.11-1.02-.11-2.62,0-5.25,0-7.87,0-.2,0-.39,0-.63,0Z" fill="#e2e2e2" stroke-width="0"/>
  <path d="M271.35,75.68c.16,0,.29-.02.41-.02,1.23,0,2.46,0,3.69,0,.22,0,.44,0,.65-.02.89-.1,1.54-.66,1.78-1.52.12-.45.13-.9.06-1.34-.16-.96-.81-1.57-1.78-1.71-.23-.03-.47-.05-.7-.05-4.4,0-8.79,0-13.19,0-.27,0-.54.02-.81.07-.84.16-1.39.65-1.62,1.48-.15.54-.14,1.08.02,1.61.21.69.66,1.15,1.35,1.37.32.1.64.12.97.12,1.27,0,2.53,0,3.8,0,.16,0,.33-.05.5.12,0,.18,0,.4,0,.61,0,5.83,0,11.65,0,17.48,0,.22-.01.44,0,.65.02.27.04.54.12.8.2.69.63,1.17,1.32,1.4.47.16.95.19,1.45.12,1.09-.15,1.79-.87,1.9-1.98.03-.29.03-.58.03-.87,0-4.65,0-9.3,0-13.95,0-1.25,0-2.5,0-3.75,0-.2-.03-.4.07-.63Z" fill="#e2e2e2" stroke-width="0"/>
  <path d="M288.94,83.96c0,3.4,0,6.8,0,10.2,0,.24-.01.47.02.7.11.92.56,1.59,1.47,1.89.6.19,1.21.19,1.82,0,.71-.22,1.17-.71,1.36-1.42.08-.31.11-.64.11-.96,0-6.95,0-13.89,0-20.84,0-.16,0-.33-.01-.49-.09-.97-.64-1.67-1.52-1.91-.61-.17-1.22-.16-1.82.04-.68.23-1.12.7-1.33,1.39-.1.34-.1.68-.1,1.02,0,3.46,0,6.91,0,10.37Z" fill="#e2e2e2" stroke-width="0"/>
  <path d="M309.61,75.68c.25,0,.43-.02.6-.02,1.18,0,2.35,0,3.53,0,.22,0,.44,0,.65-.02.87-.08,1.55-.63,1.79-1.44.16-.55.18-1.11.02-1.66-.23-.81-.77-1.29-1.59-1.45-.26-.05-.54-.07-.81-.07-4.42,0-8.83,0-13.25,0-.27,0-.55.02-.81.07-.82.16-1.36.64-1.59,1.45-.14.5-.14,1-.02,1.5.23.94.92,1.52,1.88,1.61.2.02.4.02.6.02,1.19,0,2.39,0,3.58,0,.18,0,.35.02.54.03.08.24.05.46.05.67,0,5.9,0,11.8,0,17.7,0,.25,0,.51.02.76.09,1.04.74,1.8,1.7,1.99.37.07.75.1,1.13.04,1.14-.16,1.86-.91,1.94-2.06.02-.27.01-.54.01-.81,0-5.86,0-11.73,0-17.59,0-.21,0-.43.01-.71Z" fill="#e2e2e2" stroke-width="0"/>
  <path d="M352.65,83.69c0,2.65-.49,4.93-1.7,7.01-1.61,2.76-3.87,4.8-6.89,5.93-1.3.49-2.65.72-4.03.78-1.44.06-2.86-.06-4.25-.42-2.34-.61-4.31-1.83-5.98-3.57-1.75-1.84-2.92-3.98-3.43-6.48-.31-1.56-.37-3.12-.2-4.7.17-1.58.58-3.1,1.32-4.5,1.72-3.26,4.28-5.56,7.83-6.68,1.25-.39,2.54-.55,3.85-.56,1.64-.02,3.25.2,4.8.76,1.91.69,3.54,1.79,4.94,3.25,1.87,1.95,3.06,4.24,3.53,6.9.15.84.19,1.69.21,2.29ZM347.83,83.99c-.04-.43-.06-.87-.11-1.3-.17-1.6-.74-3.05-1.73-4.33-1.29-1.68-2.95-2.75-5.06-3.1-.88-.15-1.76-.17-2.65-.07-1.49.17-2.85.67-4.03,1.6-1.16.91-2.06,2.04-2.62,3.41-1,2.42-1.03,4.87-.09,7.3.68,1.76,1.85,3.14,3.46,4.14,1.02.63,2.13.96,3.32,1.09,1.22.13,2.42.04,3.6-.31,2-.6,3.49-1.87,4.58-3.62.92-1.47,1.28-3.09,1.32-4.81Z" fill="#e2e2e2" stroke-width="0"/>
  <path d="M372.37,87.36s-.07.03-.11.04c-.11-.16-.22-.32-.32-.48-2.94-4.61-5.87-9.22-8.81-13.83-.14-.21-.27-.43-.42-.63-.52-.69-1.2-1.14-2.05-1.34-.59-.13-1.19-.15-1.78-.02-1.05.23-1.73.87-1.96,1.94-.07.35-.1.72-.1,1.08,0,6.72,0,13.43,0,20.15,0,.18,0,.36.01.54.09,1.12.79,1.86,1.9,2.04.38.06.76.05,1.13-.03.86-.18,1.41-.69,1.64-1.55.1-.36.1-.72.1-1.08,0-4.67-.02-9.34-.02-14.01,0-.13,0-.25,0-.38,0-.07-.02-.15.12-.18.09.13.2.28.29.42,2.04,3.21,4.08,6.41,6.12,9.62,1.18,1.86,2.37,3.73,3.56,5.59.82,1.28,1.99,1.79,3.48,1.57.98-.15,1.66-.8,1.89-1.77.09-.38.09-.75.09-1.13,0-6.73,0-13.47,0-20.2,0-.14,0-.29,0-.43-.02-.22-.04-.43-.09-.64-.19-.82-.71-1.33-1.51-1.54-.52-.13-1.04-.13-1.56,0-.8.21-1.34.72-1.52,1.53-.07.33-.09.68-.09,1.02,0,4.36,0,8.72.01,13.09,0,.2,0,.4,0,.59Z" fill="#e2e2e2" stroke-width="0"/>
  <path d="M254.14,144.5c-.04.35-.03.54-.08.71-1.12,4.79-3.9,8.22-8.45,10.14-3.5,1.47-7.17,1.69-10.88,1.02-7.03-1.27-11.61-6.78-13.14-11.75-1.12-3.62-1.2-7.28-.27-10.94,2.12-8.37,10.44-14.9,20.88-12.5,2.39.55,4.59,1.61,6.71,2.84.67.39,1.35.77,2.05,1.1,1.16.55,2.31.45,3.4-.18,1.15-.66,2.03-1.61,2.56-2.83.54-1.22.53-2.46-.16-3.62-.31-.54-.7-1.06-1.15-1.48-.64-.6-1.34-1.16-2.08-1.65-1.86-1.23-3.88-2.13-6-2.81-3.6-1.15-7.3-1.49-11.05-1.31-3.2.16-6.29.85-9.23,2.15-5.08,2.25-9.05,5.8-12.1,10.4-2.37,3.58-3.68,7.54-4.11,11.81-.34,3.34-.15,6.64.62,9.9,1.21,5.11,3.83,9.4,7.56,13.05,3.51,3.43,7.63,5.82,12.43,6.91,5.22,1.19,10.43,1.04,15.54-.58,6.59-2.09,11.49-6.25,14.59-12.45,1.94-3.88,2.61-8.05,2.49-12.36-.02-.55-.13-1.11-.3-1.63-.52-1.59-1.6-2.62-3.21-3.08-.76-.22-1.53-.23-2.31-.23-5.69,0-11.38,0-17.07,0-.41,0-.81,0-1.22.05-1.93.23-3.23,1.44-3.64,3.35-.18.85-.18,1.68,0,2.53.39,1.77,1.48,2.86,3.24,3.23.64.13,1.32.17,1.98.17,3.69.02,7.39,0,11.08,0,.4,0,.8.01,1.3.02Z" fill="#e2e2e2" stroke-width="0"/>
  <path d="M302.11,148.17c0,3.79-.75,7.09-2.64,10.06-2.32,3.64-5.47,6.21-9.68,7.36-2.33.64-4.71.79-7.12.51-2.32-.27-4.51-.89-6.51-2.09-4.23-2.55-6.96-6.25-8.04-11.07-.85-3.82-.72-7.64.74-11.3,1.92-4.82,5.29-8.23,10.24-9.94,2.54-.88,5.18-1.06,7.85-.78,1.6.17,3.15.53,4.63,1.14,4.94,2.05,8.84,6.7,10.03,11.95.34,1.47.46,2.96.49,4.16ZM293.6,148.47c.02-2.48-.7-4.74-2.3-6.7-1.31-1.6-2.98-2.59-5.03-2.85-.85-.11-1.72-.11-2.58-.03-1.98.19-3.67,1.03-5.02,2.51-1.01,1.1-1.72,2.37-2.14,3.8-.49,1.65-.55,3.34-.34,5.02.23,1.81.89,3.45,2.03,4.89,1.1,1.4,2.49,2.36,4.21,2.83,1,.27,2.01.33,3.04.28,2.36-.12,4.3-1.06,5.81-2.89,1.64-1.98,2.34-4.28,2.32-6.86Z" fill="#e2e2e2" stroke-width="0"/>
  <path d="M323.71,130.79c3.78.02,7.27.99,10.28,3.35,4.02,3.15,6.34,7.26,6.82,12.38.28,2.94.04,5.83-1.03,8.58-2.04,5.25-5.69,8.87-11.17,10.47-2.35.69-4.77.81-7.21.52-2.92-.34-5.59-1.29-7.94-3.07-3.3-2.5-5.52-5.74-6.47-9.78-.92-3.89-.83-7.76.63-11.49,2.01-5.15,5.63-8.67,10.98-10.29,1.54-.46,3.33-.67,5.11-.67ZM332.36,148.48c0-.32.02-.64,0-.96-.15-2.31-.99-4.33-2.52-6.06-1.18-1.33-2.65-2.2-4.42-2.48-.69-.11-1.4-.16-2.09-.15-2.85.05-5.09,1.27-6.7,3.62-.51.74-.9,1.54-1.18,2.39-.53,1.57-.66,3.18-.51,4.82.2,2.29,1.02,4.33,2.6,6.04,1.14,1.23,2.54,2.01,4.19,2.34.79.16,1.58.2,2.38.18,2.55-.08,4.61-1.12,6.18-3.13,1.51-1.95,2.15-4.17,2.09-6.61Z" fill="#e2e2e2" stroke-width="0"/>
  <path d="M369.84,163.66c-.22-.05-.35.12-.5.22-3.17,1.97-6.6,2.66-10.3,2.23-4.37-.51-7.76-2.63-10.36-6.13-2.01-2.71-3.16-5.75-3.52-9.1-.34-3.13-.06-6.19,1-9.16,1.01-2.82,2.62-5.25,4.84-7.27,2.19-1.99,4.78-3.14,7.72-3.53,2.98-.4,5.87-.08,8.61,1.18.82.38,1.57.88,2.35,1.34.22.13.42.29.66.45.1-.12.19-.21.25-.32.56-1.06,1.49-1.58,2.63-1.78.8-.14,1.61-.12,2.4.11,1.32.38,2.17,1.24,2.53,2.56.12.43.16.89.19,1.34.03.39.01.77.01,1.16,0,8.47,0,16.93,0,25.4,0,2.08-.16,4.14-.78,6.13-1.79,5.74-5.62,9.31-11.52,10.56-3.34.71-6.68.6-9.96-.41-3.05-.94-5.57-2.69-7.52-5.22-.43-.56-.81-1.18-1.09-1.82-.69-1.56-.34-3,.98-4.09.94-.78,2-1.29,3.26-1.31.96-.02,1.79.3,2.49.92.63.56,1.24,1.14,1.76,1.8,1.13,1.44,2.64,2.12,4.39,2.39,1.46.22,2.9.11,4.33-.22,2.25-.53,3.76-1.91,4.59-4.05.4-1.03.6-2.11.65-3.21,0-.05-.06-.11-.09-.16ZM361.81,158.23s0-.03,0-.05c.29-.02.58-.03.87-.05,2.15-.16,3.88-1.1,5.17-2.84.76-1.02,1.32-2.14,1.66-3.37.56-2.03.61-4.07.19-6.13-.31-1.51-.92-2.88-1.85-4.11-.97-1.28-2.23-2.13-3.79-2.54-1.11-.29-2.24-.34-3.37-.21-2.13.25-3.85,1.22-5.12,2.97-.67.92-1.18,1.92-1.51,3.01-.55,1.82-.65,3.67-.37,5.55.27,1.83.95,3.48,2.09,4.93,1.01,1.29,2.3,2.17,3.91,2.52.69.15,1.4.2,2.1.3Z" fill="#e2e2e2" stroke-width="0"/>
  <path d="M392.76,139.37c0,6.77,0,13.55,0,20.32,0,.62,0,1.24-.08,1.85-.22,1.93-1.46,3.25-3.36,3.68-1.06.24-2.11.19-3.13-.12-1.64-.51-2.64-1.65-2.92-3.34-.12-.68-.14-1.38-.14-2.07,0-10.85,0-21.7,0-32.55,0-2.8,0-5.61,0-8.41,0-.54.03-1.09.1-1.63.27-1.96,1.46-3.26,3.38-3.66,1.01-.21,2.03-.22,3.03.06,1.76.5,2.76,1.69,3.03,3.48.09.61.09,1.23.09,1.85,0,6.85,0,13.69,0,20.54Z" fill="#e2e2e2" stroke-width="0"/>
  <path d="M406.63,154c.85,1.78,2.09,2.96,3.75,3.6,3.2,1.24,6.28.98,9.11-1.08.38-.28.71-.62,1.09-.91,2.5-1.94,6.02-.56,6.54,2.56.2,1.21-.13,2.3-.92,3.22-.34.39-.75.74-1.16,1.06-3.53,2.8-7.56,3.94-12.05,3.76-7.16-.29-14.18-5.12-16.1-13.4-1.04-4.51-.63-8.91,1.53-13.02,3.04-5.79,7.92-8.79,14.47-9.02,1.58-.05,3.15.09,4.68.5,4.99,1.33,8.27,4.55,10.23,9.24,1.04,2.49-.21,4.8-2.39,5.68-4.14,1.66-8.25,3.4-12.37,5.1-1.75.72-3.49,1.45-5.23,2.18-.34.14-.67.3-1.18.52ZM418.88,141.15c-1.13-1.55-2.6-2.25-4.33-2.49-4.28-.6-8.46,2.58-9.32,6.92-.08.39-.01.81-.01,1.31.37-.1.67-.16.95-.27,5.85-2.27,11.43-4.66,12.71-5.47Z" fill="#e2e2e2" stroke-width="0"/>
  <path d="M456.35,145.74c0,.54,0,.94,0,1.34,0,4.23,0,8.45,0,12.68,0,.51,0,1.02-.04,1.53-.19,2.13-1.5,3.57-3.59,3.97-.98.19-1.96.15-2.92-.14-1.55-.49-2.54-1.54-2.89-3.13-.13-.56-.17-1.15-.18-1.73-.02-1.68,0-3.35,0-5.03,0-12.06,0-24.12,0-36.19,0-.69.03-1.39.14-2.07.36-2.09,1.83-3.43,3.93-3.63.43-.04.87-.05,1.31-.05,4.26,0,8.53,0,12.79,0,1.61,0,3.21.15,4.76.56,4.07,1.09,7.31,3.37,9.73,6.81,1.52,2.16,2.31,4.6,2.52,7.24.19,2.35,0,4.66-.77,6.9-1.07,3.1-3.04,5.53-5.64,7.48-2.44,1.83-5.18,2.94-8.23,3.25-.94.1-1.89.15-2.83.16-2.3.02-4.59,0-6.89,0-.36,0-.71.02-1.21.04ZM456.35,136.25c.39.03.63.08.88.08,2.62,0,5.25,0,7.87,0,2.58,0,4.54-1.19,6-3.23,1.61-2.25,1.52-5.25-.18-7.44-1.46-1.89-3.36-2.99-5.8-3.01-2.7-.02-5.39,0-8.09,0-.2,0-.4.08-.69.14,0,4.49,0,8.92,0,13.47Z" fill="#e2e2e2" stroke-width="0"/>
  <path d="M485.57,139.27c0-6.81,0-13.62,0-20.43,0-.47,0-.95.03-1.42.15-2.09,1.39-3.56,3.43-3.98,1.04-.22,2.1-.22,3.14.09,1.57.48,2.54,1.54,2.87,3.13.13.64.17,1.3.17,1.95.01,4.73,0,9.47,0,14.2,0,8.99,0,17.99,0,26.98,0,.69-.03,1.39-.16,2.06-.34,1.78-1.41,2.9-3.19,3.34-1.05.26-2.1.21-3.14-.06-1.69-.45-2.87-1.82-3.08-3.59-.07-.58-.07-1.16-.07-1.74,0-6.85,0-13.69,0-20.54Z" fill="#e2e2e2" stroke-width="0"/>
  <path d="M520.31,143.43c-.15-1.18-.63-2.07-1.42-2.81-.54-.51-1.16-.92-1.85-1.19-2.4-.93-4.79-1.03-7.12.25-.67.37-1.3.81-1.95,1.21-.38.24-.74.5-1.13.71-.93.5-1.9.5-2.86.09-.96-.41-1.76-1.05-2.34-1.92-.74-1.1-.83-2.27-.16-3.44.25-.44.57-.85.92-1.22,1.24-1.34,2.74-2.29,4.42-2.96,2.99-1.2,6.09-1.63,9.3-1.27,1.82.2,3.59.6,5.25,1.39,3.95,1.87,6.37,4.93,7.05,9.28.17,1.1.25,2.23.25,3.34.03,5.28.01,10.56,0,15.84,0,.48-.02.96-.09,1.43-.22,1.52-1.24,2.63-2.73,2.98-1.36.32-2.67.2-3.86-.6-.24-.16-.47-.33-.67-.54-.2-.2-.35-.46-.55-.74-.18.1-.37.19-.54.32-2.6,1.91-5.51,2.78-8.71,2.67-3.09-.11-5.89-1.05-8.33-2.99-2.58-2.05-3.91-4.75-4.11-8.02-.07-1.12.01-2.24.25-3.34.69-3.16,2.59-5.44,5.28-7.11,1.71-1.06,3.6-1.64,5.58-1.92,3.19-.46,6.37-.33,9.51.46.17.04.35.06.61.1ZM520.33,151.5c-.47-.39-.99-.56-1.5-.72-2.04-.66-4.13-.76-6.24-.54-.89.09-1.75.33-2.58.69-1.73.77-2.38,1.76-2.36,3.66,0,.06,0,.13,0,.19.04,1.14.54,2.02,1.49,2.64.9.59,1.9.9,2.97.97,4.38.3,7.55-3.11,8.15-6.16.05-.24.05-.5.07-.73Z" fill="#e2e2e2" stroke-width="0"/>
  <path d="M543.19,162.44c-.18-.41-.34-.8-.52-1.19-3.52-7.84-7.04-15.68-10.56-23.51-.31-.69-.58-1.39-.68-2.15-.15-1.1.1-2.1.81-2.95.9-1.08,2.07-1.71,3.47-1.86,1.22-.14,2.26.28,3.09,1.19.54.59.89,1.29,1.2,2.02.92,2.14,1.84,4.28,2.75,6.42,1.47,3.44,2.94,6.88,4.42,10.31.14.32.23.67.52.97.32-.33.41-.73.55-1.07,1.72-4.12,3.43-8.24,5.14-12.35.54-1.3,1.06-2.61,1.63-3.9.25-.57.53-1.13.89-1.63,1.02-1.42,2.49-1.9,4.17-1.42.44.13.88.3,1.27.53,1.99,1.17,2.46,2.72,2.04,4.76-.12.57-.37,1.12-.6,1.66-4.72,10.75-9.45,21.5-14.17,32.25-.79,1.8-1.54,3.62-2.33,5.42-.25.57-.53,1.13-.85,1.66-1.03,1.71-2.77,2.32-4.67,1.69-.76-.25-1.43-.67-1.97-1.25-.91-.97-1.32-2.12-.95-3.44.25-.88.55-1.75.9-2.6,1.19-2.88,2.59-5.67,3.96-8.46.17-.35.34-.71.51-1.07Z" fill="#e2e2e2" stroke-width="0"/>
  <path d="M127.25,122.6l-44.36,47.08s0,.02,0,.03c1.36,5.11,6.03,8.88,11.57,8.88,2.22,0,4.29-.6,6.08-1.65l.14-.08,49.93-28.81-23.37-25.44h0Z" fill="#9d6960" stroke-width="0"/>
  <path d="M172.13,114.58l-.04-.03-21.56-12.5-24.29,21.61,24.37,24.37,21.44-12.37c3.76-2.03,6.31-5.99,6.31-10.56s-2.52-8.48-6.24-10.52h0Z" fill="#a58e5b" stroke-width="0"/>
  <path d="M82.89,80.32c-.27.98-.41,2.01-.41,3.08v83.2c0,1.07.14,2.1.41,3.08l45.89-45.88-45.89-43.48h0Z" fill="#525e7d" stroke-width="0"/>
  <path d="M127.58,125l22.96-22.96-49.88-28.92c-1.81-1.09-3.93-1.71-6.19-1.71-5.54,0-10.22,3.77-11.58,8.89,0,0,0,0,0,.01l44.69,44.68h0Z" fill="#5f7e5f" stroke-width="0"/>
</svg>